<?xml version="1.0" standalone="no"?>
<!DOCTYPE svg PUBLIC "-//W3C//DTD SVG 20010904//EN"
 "http://www.w3.org/TR/2001/REC-SVG-20010904/DTD/svg10.dtd">
<svg version="1.0" xmlns="http://www.w3.org/2000/svg"
 width="700.000000pt" height="700.000000pt" viewBox="0 0 700.000000 700.000000"
 preserveAspectRatio="xMidYMid meet">
<metadata>
Created by potrace 1.14, written by Peter Selinger 2001-2017
</metadata>
<g transform="translate(0.000000,700.000000) scale(0.100000,-0.100000)"
fill="#000000" stroke="none">
<path d="M481 6984 c-87 -23 -171 -74 -247 -149 -82 -81 -102 -108 -150 -206
-82 -166 -104 -372 -55 -526 33 -107 178 -328 320 -492 36 -42 88 -103 115
-136 110 -134 280 -266 434 -336 39 -18 72 -38 72 -43 0 -6 -8 -24 -18 -41
-21 -35 -128 -296 -165 -405 -27 -78 -85 -277 -93 -320 -3 -14 -9 -41 -14 -60
-5 -19 -12 -51 -15 -70 -3 -19 -8 -42 -10 -50 -2 -8 -7 -37 -11 -65 -3 -27 -8
-58 -9 -67 -2 -9 -7 -48 -10 -85 -4 -37 -8 -79 -11 -93 -6 -38 -6 -348 0 -402
3 -27 8 -69 11 -95 61 -538 321 -1013 744 -1353 24 -19 49 -39 55 -45 33 -29
174 -119 266 -172 118 -66 174 -93 305 -148 50 -20 97 -41 105 -45 25 -12 271
-88 340 -105 177 -43 356 -78 465 -90 27 -3 61 -8 75 -10 14 -2 59 -7 100 -10
41 -4 95 -9 120 -12 62 -6 523 -6 590 0 30 4 89 9 130 12 41 3 86 8 100 10 14
2 50 6 80 10 111 12 340 58 505 101 241 62 581 205 763 321 29 18 56 33 61 33
5 0 11 4 13 8 2 4 20 18 40 30 92 57 288 227 394 343 216 237 403 601 460 892
2 10 5 26 8 35 3 9 8 37 11 62 4 24 8 47 10 50 2 3 6 41 10 85 4 44 9 89 11
100 6 27 5 363 0 395 -2 14 -7 53 -10 87 -10 97 -16 142 -33 223 -8 41 -16 84
-18 95 -24 162 -175 607 -271 797 -13 26 -24 51 -24 56 0 5 28 21 63 36 172
77 326 196 451 351 70 86 83 101 144 170 103 116 251 350 283 446 33 101 33
268 1 381 -54 190 -157 339 -302 433 -128 84 -93 80 -810 80 l-635 0 -65 -24
c-149 -55 -279 -177 -385 -362 l-38 -66 -71 32 c-83 38 -222 79 -321 95 -38 6
-81 13 -94 15 -140 25 -1367 25 -1498 1 -17 -3 -74 -12 -138 -22 -16 -3 -44
-9 -61 -15 -17 -5 -40 -11 -50 -13 -31 -7 -115 -37 -173 -62 -68 -30 -75 -30
-90 4 -7 15 -37 63 -66 107 -111 166 -231 261 -375 299 -81 21 -1239 21 -1319
0z"/>
</g>
</svg>
